# xmcd
# Track frame offsets:
# 150
# 11002
# 19470
# 28312
# 39925
# 47470
# 56840
# 68120
# 77937
# 89362
# 100627
# 109117
# 118602
# 127985
# 139805
# 148112
# 157565
# 167222
# 176982
# 188872
# 198767
# 208415
# 218132
# 229402
# 240560
# 249505
# 258037
# 267685
# 279920
# 292130
# 301310
# 311142
# 320122
# 332425
#
# Disc length: 4604 seconds
# Revision: 0
# Processed by: cddbd v1.4PL0 Copyright (c) Steve Scherf et al.
# Submitted via: VisiTrax 2.9.5.180 - For more info visit www.synapsa.com
#
DISCID=fc11fa22
DTITLE=Narvel Felts - Did You Tell Me
DYEAR=1997
DGENRE=
TTITLE0=Did You Tell Me
TTITLE1=My Babe
TTITLE2=Cry Baby Cry - 1
TTITLE3=You Touch -1
TTITLE4=Foolish Thoughts
TTITLE5=Kiss-A-Me Baby -1
TTITLE6=Lonesome Feeling 1
TTITLE7=River, Lonely - 1
TTITLE8=A Fool In Paradise-1
TTITLE9=A Teen´s Way -1
TTITLE10=Kiss-A-Me Baby -2
TTITLE11=A Fool In Paradise -2
TTITLE12=Cry Baby Cry - 2
TTITLE13=Your Touch -2
TTITLE14=Foolish Thoughts -2
TTITLE15=Lonely River -2
TTITLE16=A Teen´s Way -2
TTITLE17=I´m Heading Home
TTITLE18=Lonesome Feeling - 2
TTITLE19=Little Girl Step This Way
TTITLE20=Your First Broken HeartVada Lou
TTITLE21=Vada Lou
TTITLE22=Dream World
TTITLE23=Rocket Ride
TTITLE24=Three Thousand Miles
TTITLE25=Cutie Baby
TTITLE26=Honey Love
TTITLE27=Genavee
TTITLE28=Tony
TTITLE29=Darling Sue
TTITLE30=Cindy Lou
TTITLE31=Why Don´t You Love Me
TTITLE32=Come Back Baby
TTITLE33=Remember me
EXTD=Bear Family Records
EXTT0=
EXTT1=
EXTT2=
EXTT3=
EXTT4=
EXTT5=
EXTT6=
EXTT7=
EXTT8=
EXTT9=
EXTT10=
EXTT11=
EXTT12=
EXTT13=
EXTT14=
EXTT15=
EXTT16=
EXTT17=
EXTT18=
EXTT19=
EXTT20=
EXTT21=
EXTT22=
EXTT23=
EXTT24=
EXTT25=
EXTT26=
EXTT27=
EXTT28=
EXTT29=
EXTT30=
EXTT31=
EXTT32=
EXTT33=
PLAYORDER=
